<?xml version="1.0" standalone="no"?><!DOCTYPE svg PUBLIC "-//W3C//DTD SVG 1.1//EN" "http://www.w3.org/Graphics/SVG/1.1/DTD/svg11.dtd"><svg t="1776691150482" class="icon" viewBox="0 0 1024 1024" version="1.1" xmlns="http://www.w3.org/2000/svg" p-id="14296" xmlns:xlink="http://www.w3.org/1999/xlink" width="200" height="200"><path d="M453.4 775.4V584.7L323.3 714.8c-22.1 22-22.1 57.9 0 80l148.1 148.1c22 22.1 57.9 22.1 80 0l148.1-148.1c22-22 22-57.9 0-80L569.9 585.2v190.2H453.4zM248 453.7h190.2L308.6 324.1c-22-22-57.9-22-80 0l-148 148c-22.1 22-22.1 57.9 0 80l148 148c22 22.1 57.9 22.1 80 0L438.7 570H248V453.7zM775.1 570H585l129.7 129.7c22 22 57.9 22 80 0l148.1-148.1c22-22 22-57.9 0-80l-148.2-148c-22-22.1-57.9-22.1-80 0l-130 130.1h190.7l-0.2 116.3z" fill="#7BCAFF" p-id="14297"></path><path d="M471.8 80.7l-148 148.1c-22 22-22 57.9 0 80l129.6 129.6V248.3h116.5V439L700 308.9c22.1-22 22.1-57.9 0-80L551.8 80.7c-22.1-22-57.9-22-80 0z" fill="#198EEB" p-id="14298"></path></svg>